PathFileType	4	(X/Y/Z)	../Python\running\Running04\task.trc
DataRate	CameraRate	NumFrames	NumMarkers	Units	OrigDataRate	OrigDataStartFrame	OrigNumFrames
200.000000	200.000000	4	30	mm	200.000000	113	226
Frame#	Time	C7			RBAK			CLAV			STRN			RASI			LASI			PE01			RTH2			RTH3			RHEE			RD5M			RTOE			LTH2			LTH3			LTB2			LTB3			LHEE			LTOE			LD5M			RTH1			LPSI			RTB2			PE03			RPSI			PE02			RTB1			RTB3			T10			LTH1			LTB1			
		X1	Y1	Z1	X2	Y2	Z2	X3	Y3	Z3	X4	Y4	Z4	X5	Y5	Z5	X6	Y6	Z6	X7	Y7	Z7	X8	Y8	Z8	X9	Y9	Z9	X10	Y10	Z10	X11	Y11	Z11	X12	Y12	Z12	X13	Y13	Z13	X14	Y14	Z14	X15	Y15	Z15	X16	Y16	Z16	X17	Y17	Z17	X18	Y18	Z18	X19	Y19	Z19	X20	Y20	Z20	X21	Y21	Z21	X22	Y22	Z22	X23	Y23	Z23	X24	Y24	Z24	X25	Y25	Z25	X26	Y26	Z26	X27	Y27	Z27	X28	Y28	Z28	X29	Y29	Z29	X30	Y30	Z30	

114	0.5650000000000001	360.2765197753907	1292.097778320313	171.0400848388672	290.0599670410157	1179.48974609375	253.3080139160157	476.7052307128909	1185.915161132813	180.0719757080079	510.9623107910159	989.2501831054692	160.6907653808594	439.6407470703127	826.1979980468755	280.1453857421876	453.2823486328127	786.7444458007817	56.00372695922854	269.0844726562501	906.1907348632817	141.7164001464844	453.8482055664065	472.3245544433596	295.1814575195314	466.8549499511721	531.806579589844	307.4632873535157	228.9725189208986	35.0786819458008	168.5442199707032	377.0880432128907	18.15734672546387	240.3324432373048	418.8412780761721	30.32225227355958	185.3659362792969	395.6130065917971	469.2414855957034	31.96806526184083	461.562438964844	508.875427246094	12.97411060333253	217.615203857422	328.6656188964845	61.18473815917972	258.538299560547	300.0473632812501	58.36512374877933	38.33528137207033	293.9772033691407	134.9162750244141	119.3996276855469	138.9337615966797	100.0757675170899	94.06934356689456	169.0634918212891	54.46020126342776	417.470886230469	540.4472656250002	314.2981262207032	260.8104858398439	864.4645385742192	104.7848510742188	372.6740112304689	226.8798370361329	268.426483154297	243.6390533447267	845.9777832031255	123.7287750244141	253.5769348144532	881.5756835937505	191.3412017822266	237.5959472656251	856.2799682617192	172.9502868652344	428.6972351074221	249.5190887451173	259.6582336425782	386.4538879394534	183.2512512207032	246.0570068359376	296.4548645019532	1005.301574707032	130.0470428466797	414.1086425781252	524.5757446289065	12.70159816741944	293.4392395019532	351.0625915527345	45.38054275512697	
115	0.5700000000000001	375.9739990234376	1291.55078125	171.1324005126954	307.1266174316407	1178.93017578125	254.9405059814454	492.4560241699221	1185.010375976563	178.3104095458985	526.1565551757815	988.085327148438	158.8466339111329	454.4727783203127	825.0574340820317	280.2136535644532	468.0372619628909	786.1696166992192	56.03465270996097	284.2063293457032	906.176635742188	141.7452850341797	463.2791442871096	470.3502197265627	295.2808227539064	477.7800903320315	529.472839355469	307.1106262207032	228.8983001708986	36.28619384765626	168.6130065917969	376.8428649902345	18.00105094909669	240.3037414550782	418.6518249511721	30.19034576416017	185.3951416015626	419.9625244140627	469.401794433594	31.90520477294923	484.6572265625002	511.1118774414065	12.47126960754395	246.4477691650392	324.5789794921876	58.9046440124512	288.0218811035157	296.9387207031251	56.74887847900393	66.98172760009768	284.640350341797	131.0656280517579	154.1246948242188	132.6942291259766	97.08334350585943	128.0840606689454	161.8564758300782	51.25444412231448	428.5966491699221	539.2471313476565	314.5654602050782	275.7456359863282	864.4373168945317	104.9300765991212	375.7254638671876	225.8145751953126	268.1347656250001	258.4810485839845	846.0596313476567	123.8653945922852	268.4445800781251	881.642211914063	191.277328491211	252.3885192871095	856.5260620117192	173.0379943847657	432.199890136719	247.3230285644532	259.826629638672	388.8218383789065	181.8573608398438	245.9871063232423	311.7760314941407	1004.819519042969	130.6873474121094	436.6463317871096	525.3253173828127	12.52156352996827	321.7398376464845	348.8199768066407	43.97911453247072	
116	0.5750000000000001	391.6497802734377	1291.33544921875	171.1443634033204	324.3348083496095	1178.78662109375	256.5733337402345	508.2016906738284	1184.5625	176.4386901855469	541.3608398437502	987.4257812500005	156.9427032470704	469.4144592285159	824.1076049804692	280.2498779296876	482.8618774414065	786.0352172851567	55.97728347778323	299.4092712402345	906.4065551757817	141.9629974365235	471.8540344238284	468.3368225097659	295.270965576172	488.0976257324221	526.976989746094	306.6738281250001	228.7947540283204	37.65724182128908	168.6553039550782	376.5422668457032	17.8623447418213	240.2397460937501	418.4367370605471	30.06043815612794	185.4233093261719	444.2767333984377	470.2704772949221	31.82955360412599	507.6925048828127	514.0325317382815	12.16040992736817	275.2691040039064	320.571746826172	56.76359558105472	317.5281677246095	294.0671997070314	55.23359680175784	96.00897979736334	274.7901916503907	127.3684387207032	189.3686065673829	126.4554977416993	93.91933441162112	162.5388488769532	154.6343688964844	47.9996795654297	439.2379455566409	538.159118652344	314.6967163085939	290.7239074707032	864.7305297851567	105.242416381836	378.5037231445314	224.9254913330079	267.7798461914064	273.3858947753907	846.4122924804692	124.1520385742188	283.4395141601564	881.8479003906255	191.3795928955079	267.3033142089845	856.9821777343755	173.2919006347657	435.3899841308596	245.3445129394532	259.9146423339845	390.9651794433596	180.6667175292969	245.8476104736329	327.1550292968751	1004.666137695313	131.4157104492188	459.1591491699221	526.7258300781252	12.35693645477296	349.8569335937501	346.8872375488282	42.74103927612306	
117	0.58	407.3038635253909	1291.451049804688	171.0772705078126	341.6813964843751	1179.052124023438	258.2029418945314	523.9468994140627	1184.5673828125	174.4646148681641	556.5901489257815	987.262573242188	154.9853973388672	484.4812316894534	823.3482055664067	280.2591857910157	497.7673034667971	786.3280639648442	55.82984542846683	314.6988830566407	906.8752441406255	142.3816070556641	479.5310974121096	466.3470458984377	295.1248474121095	497.7182312011721	524.384948730469	306.1410522460939	228.6742553710939	39.2341651916504	168.6748199462891	376.1942138671876	17.75620079040528	240.1303863525392	418.2058715820315	29.93817710876466	185.4501495361329	468.489685058594	471.8385314941409	31.72856521606447	530.5820312500002	517.6304931640627	12.05031108856202	304.0607910156251	316.6456909179689	54.76835250854495	347.030975341797	291.4390258789064	53.81973648071292	125.4412918090821	264.4851989746095	123.8303375244141	225.1186676025392	120.2803039550782	90.63728332519534	197.4305114746095	147.4512786865235	44.7335777282715	449.320007324219	537.201843261719	314.6634521484376	305.7542724609376	865.3292846679692	105.7233581542969	381.0606994628907	224.2637329101564	267.3524780273439	288.3665466308595	847.0296020507817	124.5843200683594	298.5794067382814	882.1941528320317	191.6629638671876	282.353973388672	857.6294555664067	173.7101440429688	438.324645996094	243.6441040039064	259.8806152343751	392.927185058594	179.7320404052735	245.6201629638673	342.6036376953126	1004.832336425782	132.2418060302735	481.575134277344	528.758483886719	12.20367622375489	377.7593383789064	345.2490539550782	41.65857315063478	
